<?xml version="1.0" encoding="utf-8"?>
<!-- Generator: Adobe Illustrator 18.1.1, SVG Export Plug-In . SVG Version: 6.00 Build 0)  -->
<!DOCTYPE svg PUBLIC "-//W3C//DTD SVG 1.1//EN" "http://www.w3.org/Graphics/SVG/1.1/DTD/svg11.dtd">
<svg version="1.1" id="Layer_1" xmlns="http://www.w3.org/2000/svg" xmlns:xlink="http://www.w3.org/1999/xlink" x="0px" y="0px"
	 viewBox="0 0 24 24" enable-background="new 0 0 24 24" xml:space="preserve">
<symbol  id="Logo" viewBox="-89.5 -963 250 1011">
	<polygon fill="#2C343F" points="160.5,-963 -89.5,-963 -89.5,48 160.5,48 	"/>
	<g>
		<g>
			<g>
				<g>
					<g>
						<path fill="#FFFFFF" d="M-10.9,5.6c0,0.4-0.1,0.7-0.4,1C-11.6,6.8-12,7-12.5,7.3c-0.4,0.2-0.9,0.4-1.5,0.6
							c-0.5,0.2-1,0.5-1.4,0.8c-0.4,0.3-0.8,0.7-1.1,1.2c-0.3,0.5-0.4,1.1-0.4,1.8c0,0.6,0.1,1.2,0.3,1.7c0.2,0.5,0.5,0.9,0.9,1.2
							c0.4,0.3,0.9,0.5,1.4,0.7c0.5,0.1,1.1,0.2,1.8,0.2c0.8,0,1.5-0.1,2.2-0.2c0.7-0.1,1.2-0.3,1.7-0.6l-0.8-2.2
							c-0.3,0.2-0.7,0.3-1.2,0.5c-0.6,0.1-1.1,0.2-1.8,0.2c-0.6,0-1.1-0.1-1.4-0.4c-0.3-0.2-0.5-0.6-0.5-1c0-0.4,0.1-0.7,0.4-0.9
							c0.3-0.3,0.7-0.5,1.1-0.7c0.4-0.2,0.9-0.4,1.4-0.7c0.5-0.2,1-0.5,1.4-0.8c0.4-0.3,0.8-0.7,1.1-1.2c0.3-0.5,0.4-1.1,0.4-1.8
							c0-0.7-0.1-1.3-0.3-1.8c-0.2-0.5-0.6-0.9-1-1.3c-0.4-0.3-0.9-0.6-1.5-0.8c-0.6-0.2-1.3-0.2-2-0.2c-0.9,0-1.8,0.1-2.5,0.3
							c-0.7,0.2-1.2,0.4-1.6,0.5l0.8,2.2c0.1-0.1,0.3-0.2,0.5-0.2c0.2-0.1,0.5-0.2,0.7-0.2c0.3-0.1,0.6-0.1,0.9-0.2
							c0.3-0.1,0.6-0.1,1-0.1c0.8,0,1.4,0.1,1.8,0.4C-11.1,4.7-10.9,5.1-10.9,5.6z"/>
						<path fill="#FFFFFF" d="M-7.2,14.1c0,0.4,0.1,0.7,0.4,0.9c0.3,0.3,0.6,0.4,1.1,0.4c0.5,0,0.9-0.1,1.2-0.4
							c0.3-0.3,0.4-0.6,0.4-0.9c0-0.4-0.1-0.7-0.4-0.9c-0.3-0.2-0.7-0.4-1.2-0.4c-0.5,0-0.9,0.1-1.1,0.4
							C-7.1,13.4-7.2,13.8-7.2,14.1z M-6.8,11.5h2.4V2h-2.4V11.5z"/>
						<path fill="#FFFFFF" d="M0,5.2c0-0.4,0.1-0.8,0.2-1C0.3,4,0.4,3.9,0.7,3.9c0.1,0,0.3,0,0.4,0c0.1,0,0.3,0.1,0.5,0.2l0.3-1.9
							C1.7,2.1,1.4,2,1,1.9C0.6,1.8,0.2,1.8-0.3,1.8C-1,1.8-1.5,2-1.9,2.3c-0.4,0.3-0.6,0.9-0.6,1.6v11.3H0V5.2z"/>
						<path fill="#FFFFFF" d="M5.9,6.5l0.3-1.4h0.1l0.3,1.5l1.6,4.9h2.6L6.9,2H5.4l-4.1,9.5h2.8L5.9,6.5z"/>
						<path fill="#FFFFFF" d="M19.1,2.9c-0.4-0.3-0.9-0.6-1.5-0.8c-0.6-0.2-1.3-0.3-2.1-0.3c-1.5,0-2.6,0.4-3.3,1.3
							c-0.7,0.9-1.1,2.1-1.1,3.6c0,1.7,0.4,2.9,1.2,3.7c0.8,0.8,1.9,1.2,3.3,1.2c0.5,0,0.9-0.1,1.4-0.2c0.5-0.1,0.9-0.3,1.2-0.6
							c0.4-0.3,0.6-0.7,0.8-1.2c0.2-0.5,0.3-1.1,0.3-1.8c0-0.3,0-0.5,0-0.8c0-0.3-0.1-0.6-0.1-0.9h-5.6c0-0.8,0.2-1.4,0.6-1.8
							c0.4-0.4,1-0.6,1.8-0.6c0.5,0,1,0.1,1.4,0.2c0.4,0.2,0.7,0.3,0.9,0.5L19.1,2.9z M15.6,9.8c-0.6,0-1.1-0.2-1.4-0.6
							c-0.3-0.4-0.5-0.9-0.6-1.5h3.5c0.1,0.7-0.1,1.2-0.3,1.6C16.5,9.6,16.1,9.8,15.6,9.8z"/>
						<path fill="#FFFFFF" d="M26.2,9.2c-0.4,0.1-0.7,0.2-1.1,0.2c-0.4,0-0.8-0.1-1.1-0.3c-0.3-0.2-0.5-0.5-0.6-0.9V2H21v9.4h1.9
							l0.3-1.2h0.1c0.2,0.5,0.5,0.8,0.9,1.1c0.4,0.3,0.8,0.4,1.3,0.4c0.3,0,0.7-0.1,1.1-0.2L26.2,9.2z"/>
						<path fill="#FFFFFF" d="M34,5.4c0,0.5-0.2,1-0.5,1.3c-0.3,0.3-0.7,0.6-1.2,0.9c-0.5,0.3-1,0.5-1.5,0.7
							c-0.6,0.2-1.1,0.5-1.5,0.8c-0.5,0.3-0.9,0.7-1.2,1.2c-0.3,0.5-0.5,1.1-0.5,1.8c0,1,0.4,1.8,1.1,2.4c0.7,0.6,1.7,0.9,3,0.9
							c0.8,0,1.5-0.1,2.1-0.2c0.6-0.1,1.1-0.3,1.5-0.4l-0.5-1.4c-0.3,0.1-0.7,0.3-1.3,0.4c-0.6,0.1-1.2,0.2-1.9,0.2
							c-0.8,0-1.5-0.2-1.9-0.6c-0.4-0.4-0.6-0.8-0.6-1.3c0-0.5,0.2-0.9,0.5-1.2c0.3-0.3,0.7-0.6,1.2-0.9c0.5-0.3,1-0.5,1.5-0.8
							c0.6-0.3,1.1-0.5,1.5-0.9c0.5-0.3,0.9-0.7,1.2-1.2c0.3-0.5,0.5-1,0.5-1.7c0-0.6-0.1-1.1-0.3-1.5c-0.2-0.5-0.5-0.8-0.9-1.2
							C34,2.5,33.5,2.3,33,2.1c-0.6-0.2-1.2-0.3-1.9-0.3c-0.9,0-1.7,0.1-2.3,0.2c-0.6,0.1-1.4,0.3-1.7,0.5l0.8,1.4
							c0.3-0.2,0.7-0.3,1.3-0.5c0.6-0.2,1.2-0.2,1.9-0.2c0.4,0,0.8,0,1.2,0.1c0.4,0.1,0.7,0.2,0.9,0.4c0.3,0.2,0.5,0.4,0.6,0.7
							C34,4.7,34,5,34,5.4z"/>
						<path fill="#FFFFFF" d="M36.1,11.5h1.5v1.9l1.5,0.4v-2.3h2.6v-1.3h-2.6V4.9c0-0.7,0.1-1.1,0.2-1.4c0.2-0.3,0.4-0.4,0.8-0.4
							c0.3,0,0.6,0,0.8,0.1c0.2,0.1,0.5,0.2,0.8,0.3L42,2.4c-0.3-0.2-0.7-0.3-1.1-0.4c-0.4-0.1-0.8-0.2-1.3-0.2
							c-0.8,0-1.3,0.2-1.6,0.6c-0.3,0.4-0.5,1.2-0.5,2.2v5.5h-1.5V11.5z"/>
						<path fill="#FFFFFF" d="M48.1,10c-0.4,0.1-0.7,0.2-1.1,0.2c-0.5,0-1-0.1-1.3-0.4c-0.3-0.3-0.5-0.7-0.6-1.1V2h-1.5v9.4h1.1
							l0.3-1.1h0.1c0.2,0.4,0.5,0.8,0.9,1c0.3,0.2,0.8,0.3,1.3,0.3c0.4,0,0.8-0.1,1.2-0.2L48.1,10z"/>
						<path fill="#FFFFFF" d="M49.4,14.3c0,0.3,0.1,0.5,0.3,0.7c0.2,0.2,0.4,0.3,0.7,0.3c0.3,0,0.6-0.1,0.8-0.3
							c0.2-0.2,0.3-0.5,0.3-0.7c0-0.3-0.1-0.5-0.3-0.7c-0.2-0.2-0.5-0.3-0.8-0.3c-0.3,0-0.5,0.1-0.7,0.3
							C49.5,13.8,49.4,14,49.4,14.3z M49.7,11.5h1.5V2h-1.5V11.5z"/>
						<path fill="#FFFFFF" d="M53.3,11.5h1l0.3-1.1h0.1c0.3,0.4,0.7,0.8,1.1,1c0.5,0.2,1,0.3,1.6,0.3c1.3,0,2.2-0.4,2.8-1.1
							c0.6-0.7,0.9-2,0.9-3.6c0-0.8-0.1-1.5-0.3-2.1c-0.2-0.6-0.5-1.2-0.9-1.6c-0.4-0.4-0.8-0.8-1.4-1c-0.5-0.2-1.1-0.4-1.8-0.4
							c-0.5,0-0.8,0-1.1,0.1c-0.3,0.1-0.6,0.2-0.9,0.3v-3.9h-1.5V11.5z M57.1,10.4c-0.6,0-1.1-0.2-1.5-0.5c-0.4-0.3-0.6-0.8-0.8-1.5
							V3.7c0.2-0.2,0.5-0.3,0.8-0.4c0.3-0.1,0.7-0.1,1.1-0.1c0.9,0,1.6,0.3,2.1,1c0.5,0.6,0.8,1.6,0.8,2.9c0,0.5,0,1-0.1,1.4
							c-0.1,0.4-0.2,0.8-0.4,1.1c-0.2,0.3-0.4,0.5-0.8,0.7C57.9,10.3,57.5,10.4,57.1,10.4z"/>
						<path fill="#FFFFFF" d="M69.7,2.8c-0.4-0.3-0.9-0.5-1.4-0.7c-0.6-0.2-1.2-0.3-1.8-0.3c-0.7,0-1.3,0.1-1.9,0.3
							c-0.5,0.2-1,0.6-1.3,1c-0.3,0.4-0.6,1-0.8,1.6c-0.2,0.6-0.2,1.3-0.2,2c0,1.6,0.4,2.8,1.1,3.7c0.7,0.8,1.7,1.3,3.1,1.3
							c0.4,0,0.9,0,1.3-0.1c0.4-0.1,0.8-0.3,1.1-0.5c0.3-0.3,0.6-0.6,0.8-1.1C69.9,9.4,70,8.8,70,8c0-0.4,0-0.9-0.1-1.4h-6
							c0-0.6,0.1-1,0.2-1.5c0.1-0.4,0.3-0.8,0.5-1.1c0.2-0.3,0.5-0.5,0.9-0.7c0.4-0.2,0.9-0.2,1.4-0.2c0.4,0,0.9,0.1,1.3,0.2
							c0.4,0.2,0.7,0.3,1,0.5L69.7,2.8z M66.4,10.4c-0.7,0-1.3-0.2-1.8-0.6c-0.4-0.4-0.7-1.1-0.8-2h4.7c0,1-0.2,1.6-0.5,2
							C67.6,10.2,67.1,10.4,66.4,10.4z"/>
					</g>
				</g>
			</g>
		</g>
		<g>
			<path fill="#32B8E4" d="M-17.2-13.9V-5h3.9c1.9,0,2.9-1.3,2.9-2.8s-1.1-2.8-2.9-2.8h-2.3v-3.3H-17.2z M-12-7.8
				c0,0.9-0.6,1.4-1.5,1.4h-2.1v-2.8h2.1C-12.6-9.2-12-8.6-12-7.8z"/>
			<path fill="#32B8E4" d="M-9.2-13.9V-5h1.6v-7.5h3.9v-1.4H-9.2z"/>
			<path fill="#32B8E4" d="M4.1-13.9l-0.7,1.7h-4.1l-0.7-1.7H-3L0.4-5h1.9l3.5-8.9H4.1z M1.4-6.5l-1.6-4.2H3L1.4-6.5z"/>
			<path fill="#32B8E4" d="M8.1-13.9v7.5H5.4V-5h6.9v-1.4H9.6v-7.5H8.1z"/>
			<path fill="#32B8E4" d="M13.7-13.9V-5h6.1v-1.4h-4.5v-2.3h4.4V-10h-4.4v-3.8H13.7z"/>
			<path fill="#32B8E4" d="M20.8-9.4c0,2.7,1.9,4.6,4.5,4.6s4.5-1.9,4.5-4.6c0-2.7-1.9-4.6-4.5-4.6S20.8-12.1,20.8-9.4z M28.3-9.4
				c0,1.8-1.2,3.2-2.9,3.2c-1.8,0-2.9-1.4-2.9-3.2c0-1.8,1.1-3.2,2.9-3.2C27.1-12.6,28.3-11.2,28.3-9.4z"/>
			<path fill="#32B8E4" d="M36.5-13.9l-2,3.3h-1.5v-3.3h-1.6V-5h3.9c1.8,0,2.9-1.1,2.9-2.8c0-1.6-1-2.4-2.1-2.6l2.2-3.5H36.5z
				 M36.6-7.8c0,0.9-0.6,1.4-1.5,1.4h-2.1v-2.8h2.1C36-9.2,36.6-8.6,36.6-7.8z"/>
			<path fill="#32B8E4" d="M47.5-13.9v6.6l-2.7-6.6h-0.7l-2.7,6.6v-6.6h-1.6V-5H42l2.4-5.9L46.8-5H49v-8.9H47.5z"/>
		</g>
	</g>
	<g>
		<path fill="#32B8E4" d="M-70,9.4c0,1,0.7,2.3,1.6,2.8l16.3,9.4c0.9,0.5,2.4,0.5,3.3,0l16.3-9.4c0.9-0.5,1.6-1.8,1.6-2.8V-9.4
			c0-1-0.7-2.3-1.6-2.8l-16.3-9.4c-0.9-0.5-2.4-0.5-3.3,0l-16.3,9.4c-0.9,0.5-1.6,1.8-1.6,2.8V9.4z"/>
		<path fill="#68C2E8" d="M-48.8-21.6l16.7,9.7c0.5,0.4,0.9,1,1.1,1.6c-0.1,0.2-0.3,0.4-0.5,0.5L-49,0.3c-0.9,0.5-2.3,0.5-3.2,0
			l-17.2-10c-0.2-0.1-0.3-0.2-0.5-0.4c0.2-0.8,0.8-1.6,1.5-2.1l16.3-9.4C-51.1-22.1-49.7-22.1-48.8-21.6z"/>
		<g>
			<g>
				<g>
					<g>
						<defs>
							<path id="SVGID_1_" d="M-69.3-4.5c-0.9,0.5-0.9,1.4,0,1.9l17.1,10c0.9,0.5,2.4,0.5,3.3,0l17.3-10c0.9-0.5,0.9-1.4,0-1.9
								l-17.1-10c-0.9-0.5-2.4-0.5-3.3,0L-69.3-4.5z"/>
						</defs>
						<clipPath id="SVGID_2_">
							<use xlink:href="#SVGID_1_"  overflow="visible"/>
						</clipPath>
					</g>
				</g>
			</g>
			<g>
				<g>
					<g enable-background="new    ">
						<defs>
							<path id="SVGID_3_" enable-background="new    " d="M-69.3-4.5c-0.9,0.5-0.9,1.4,0,1.9l17.1,10c0.9,0.5,2.4,0.5,3.3,0
								l17.3-10c0.9-0.5,0.9-1.4,0-1.9l-17.1-10c-0.9-0.5-2.4-0.5-3.3,0L-69.3-4.5z"/>
						</defs>
						<use xlink:href="#SVGID_3_"  overflow="visible" fill="#A8D7F0"/>
						<clipPath id="SVGID_4_">
							<use xlink:href="#SVGID_3_"  overflow="visible"/>
						</clipPath>
						<g clip-path="url(#SVGID_4_)">
							<path fill="#A8D7F0" d="M-29.9-3.6L-48.8,7.4c-0.9,0.5-2.4,0.5-3.3,0l-17.1-10c-0.9-0.5-0.9-1.4,0-1.9l17.3-10
								c0.9-0.5,2.4-0.5,3.3,0L-29.9-3.6"/>
						</g>
					</g>
				</g>
			</g>
			<g>
				<g>
					<g>
						<defs>
							<path id="SVGID_5_" d="M-69.3-4.5c-0.9,0.5-0.9,1.4,0,1.9l17.1,10c0.9,0.5,2.4,0.5,3.3,0l17.3-10c0.9-0.5,0.9-1.4,0-1.9
								l-17.1-10c-0.9-0.5-2.4-0.5-3.3,0L-69.3-4.5z"/>
						</defs>
						<clipPath id="SVGID_6_">
							<use xlink:href="#SVGID_5_"  overflow="visible"/>
						</clipPath>
					</g>
				</g>
			</g>
		</g>
		<g>
			<g>
				<g>
					<g>
						<defs>
							<path id="SVGID_7_" d="M-69.3,2.6c-0.9,0.5-0.9,1.3,0,1.8l17.2,10c0.9,0.5,2.3,0.5,3.2,0l17.4-10c0.9-0.5,0.9-1.3,0-1.8
								l-17.2-10c-0.9-0.5-2.3-0.5-3.2,0L-69.3,2.6z"/>
						</defs>
						<clipPath id="SVGID_8_">
							<use xlink:href="#SVGID_7_"  overflow="visible"/>
						</clipPath>
					</g>
				</g>
			</g>
			<g>
				<g>
					<g enable-background="new    ">
						<defs>
							<path id="SVGID_9_" enable-background="new    " d="M-69.3,2.6c-0.9,0.5-0.9,1.3,0,1.8l17.2,10c0.9,0.5,2.3,0.5,3.2,0
								l17.4-10c0.9-0.5,0.9-1.3,0-1.8l-17.2-10c-0.9-0.5-2.3-0.5-3.2,0L-69.3,2.6z"/>
						</defs>
						<use xlink:href="#SVGID_9_"  overflow="visible" fill="#FFFFFF"/>
						<clipPath id="SVGID_10_">
							<use xlink:href="#SVGID_9_"  overflow="visible"/>
						</clipPath>
						<g clip-path="url(#SVGID_10_)">
							<path fill="#FFFFFF" d="M-30,3.6l-19,10.9c-0.9,0.5-2.3,0.5-3.2,0l-17.2-10c-0.9-0.5-0.9-1.3,0-1.8l17.4-10
								c0.9-0.5,2.3-0.5,3.2,0L-30,3.6"/>
						</g>
					</g>
				</g>
			</g>
			<g>
				<g>
					<g>
						<defs>
							<path id="SVGID_11_" d="M-69.3,2.6c-0.9,0.5-0.9,1.3,0,1.8l17.2,10c0.9,0.5,2.3,0.5,3.2,0l17.4-10c0.9-0.5,0.9-1.3,0-1.8
								l-17.2-10c-0.9-0.5-2.3-0.5-3.2,0L-69.3,2.6z"/>
						</defs>
						<clipPath id="SVGID_12_">
							<use xlink:href="#SVGID_11_"  overflow="visible"/>
						</clipPath>
					</g>
				</g>
			</g>
		</g>
	</g>
</symbol>
<g id="BG">
	<g id="BG_1_">
	</g>
	<g id="Menu_open_v1">
	</g>
	<g id="Stack_open">
	</g>
</g>
<path fill="#778196" d="M23.2,12.7c0-0.6-0.1-1.2-0.3-1.8c-0.1-0.6-0.3-1.2-0.6-1.8c-0.5-1.2-1.2-2.3-2.2-3.3
	c-0.8-0.8-1.7-1.5-2.7-2.1c0-0.3-0.2-0.6-0.6-0.8c0,0-0.2-0.1-0.4-0.2c-0.1-0.1-0.3-0.1-0.5-0.2c-0.2-0.1-0.4-0.1-0.6-0.2
	c-0.1,0-0.2-0.1-0.4-0.1c-0.1,0-0.3-0.1-0.4-0.1c-0.1,0-0.3,0-0.4-0.1c-0.1,0-0.1,0-0.2,0c-0.1,0-0.1,0-0.2,0c-0.1,0-0.2,0-0.2,0
	c-0.1,0-0.2,0-0.2,0C13.1,2,13,2,13,2c-0.1,0-0.2,0-0.2,0c-0.1,0-0.3,0-0.4,0l-0.1,0l-0.1,0L12,2l-0.2,0l-0.2,0c-0.1,0-0.2,0-0.2,0
	c-0.2,0-0.3,0-0.5,0.1c-0.2,0-0.3,0.1-0.5,0.1c-0.1,0-0.2,0-0.2,0c-0.1,0-0.1,0-0.2,0.1c-0.1,0-0.3,0.1-0.4,0.1
	C9.3,2.4,9.2,2.5,9,2.5c-0.1,0-0.3,0.1-0.4,0.1c-0.1,0-0.2,0.1-0.4,0.1C8.1,2.8,7.9,2.9,7.7,3c-0.1,0-0.2,0.1-0.3,0.1
	c-0.1,0-0.1,0.1-0.2,0.1C7,3.4,6.9,3.4,6.9,3.4C6.6,3.6,6.5,3.8,6.5,4C6.2,4.2,5.9,4.4,5.7,4.5C4.7,5.3,3.9,6.1,3.3,6.9
	C2.7,7.7,2.3,8.6,2,9.4c-0.3,0.8-0.5,1.5-0.6,2.1c0,0.1,0,0.3-0.1,0.4c-0.5,0.1-0.9,0.6-0.9,1.1v2.3c0,0.6,0.5,1.1,1.1,1.1
	s1.1-0.5,1.1-1.1v-2.3c0-0.4-0.2-0.8-0.5-1c0-0.1,0-0.2,0.1-0.4c0.1-0.5,0.3-1.2,0.5-1.9C3.1,9,3.5,8.2,4.1,7.4
	c0.6-0.8,1.3-1.5,2.1-2.2c0.2-0.2,0.5-0.3,0.7-0.5c0.2,0.1,0.4,0.1,0.6,0c0,0,0.1-0.1,0.4-0.2C8,4.6,8,4.5,8.1,4.5
	c0.1,0,0.1-0.1,0.2-0.1c0.2-0.1,0.3-0.1,0.5-0.2c0.1,0,0.2-0.1,0.3-0.1C9.3,4.1,9.4,4,9.5,4c0.1,0,0.2-0.1,0.4-0.1
	c0.1,0,0.2-0.1,0.4-0.1c0.1,0,0.1,0,0.2,0c0.1,0,0.1,0,0.2,0c0.1,0,0.3,0,0.4-0.1c0.1,0,0.3,0,0.4,0c0.1,0,0.1,0,0.2,0l0.2,0l0.2,0
	l0.1,0l0,0l0,0l0,0c0.1,0,0.3,0,0.4,0c0.1,0,0.1,0,0.2,0c0.1,0,0.1,0,0.2,0c0.1,0,0.1,0,0.2,0c0.1,0,0.1,0,0.2,0c0.1,0,0.1,0,0.2,0
	c0.1,0,0.1,0,0.2,0c0.1,0,0.2,0.1,0.4,0.1c0.1,0,0.2,0.1,0.3,0.1c0.1,0,0.2,0.1,0.3,0.1c0.2,0.1,0.4,0.1,0.5,0.2
	c0.2,0.1,0.3,0.1,0.4,0.2c0.2,0.1,0.3,0.2,0.3,0.2l0,0c0,0,0,0,0,0c0.3,0.1,0.6,0.1,0.8-0.1c0.9,0.5,1.7,1.1,2.4,1.9
	c0.9,0.9,1.5,1.9,2,3c0.2,0.5,0.4,1.1,0.5,1.6c0.1,0.6,0.2,1.1,0.2,1.6c0,0.3,0,0.5,0,0.8c0,0.2,0,0.4-0.1,0.6
	c-0.1,0.1-0.2,0.3-0.3,0.4c-0.2,0.1-0.4,0.2-0.6,0.3c-0.1,0.1-0.3,0.1-0.5,0.2c0.1-0.5,0.2-1.1,0.2-1.6c0-4.8-3.9-8.7-8.7-8.7
	s-8.7,3.9-8.7,8.7S7.4,22,12.2,22c3.8,0,7-2.5,8.2-5.9c0.4-0.1,0.8-0.2,1.2-0.4c0.3-0.1,0.5-0.2,0.8-0.4c0.1-0.1,0.3-0.2,0.4-0.3
	c0.1-0.1,0.2-0.3,0.3-0.5c0.1-0.2,0.1-0.3,0.2-0.5c0-0.2,0-0.3,0-0.5C23.2,13.3,23.2,13,23.2,12.7z M19,15.4c-0.1,0-0.2,0-0.3,0
	c-0.8,0.1-1.5,0.2-2,0.2c-0.2,0-0.3,0-0.4,0c-0.2-0.8-1-1.5-2-1.5c-1.1,0-2,0.9-2,2s0.9,2,2,2c1,0,1.8-0.7,2-1.6c0.2,0,0.3,0,0.5,0
	c0.5,0,1.1-0.1,1.8-0.2c-1.2,2.3-3.6,3.9-6.3,3.9c-3.9,0-7.1-3.2-7.1-7.1s3.2-7.1,7.1-7.1s7.1,3.2,7.1,7.1
	C19.3,14,19.2,14.7,19,15.4z M15.3,16.2c0,0.5-0.4,1-1,1c-0.5,0-1-0.4-1-1c0-0.5,0.4-1,1-1C14.8,15.3,15.3,15.7,15.3,16.2z"/>
</svg>
